#define max_width  10
#define max_height 10
static unsigned char max_bits[] = {
 0x00,0xfc,0x00,0xfc,0xfc,0xfc,0xfc,0xfc,0xcc,0xfc,0xcc,0xfc,
 0xfc,0xfc,0xfc,0xfc,0x00,0xfc,0x00,0xfc};
